<svg id="visual" viewBox="0 0 900 600" width="900" height="600" xmlns="http://www.w3.org/2000/svg" xmlns:xlink="http://www.w3.org/1999/xlink" version="1.1"><rect x="0" y="0" width="900" height="600" fill="#ced8e0"></rect><defs><linearGradient id="grad1_0" x1="33.3%" y1="0%" x2="100%" y2="100%"><stop offset="20%" stop-color="#ced8e0" stop-opacity="1"></stop><stop offset="80%" stop-color="#ced8e0" stop-opacity="1"></stop></linearGradient></defs><defs><linearGradient id="grad2_0" x1="0%" y1="0%" x2="66.7%" y2="100%"><stop offset="20%" stop-color="#ced8e0" stop-opacity="1"></stop><stop offset="80%" stop-color="#ced8e0" stop-opacity="1"></stop></linearGradient></defs><g transform="translate(900, 0)"><path d="M0 486.7C-67.2 483.8 -134.4 480.8 -186.3 449.7C-238.1 418.6 -274.7 359.2 -309 309C-343.3 258.8 -375.4 217.6 -404.7 167.6C-433.9 117.6 -460.3 58.8 -486.7 0L0 0Z" fill="#b77591"></path></g><g transform="translate(0, 600)"><path d="M0 -486.7C54.8 -447.6 109.6 -408.5 156.1 -376.9C202.7 -345.4 241 -321.5 294.2 -294.2C347.3 -266.8 415.1 -235.9 449.7 -186.3C484.3 -136.7 485.5 -68.3 486.7 0L0 0Z" fill="#b77591"></path></g></svg>